<svg version="1.1" id="Layer_1" xmlns="http://www.w3.org/2000/svg" xmlns:xlink="http://www.w3.org/1999/xlink" x="0px" y="0px"
	 width="187.354px" height="151.469px" viewBox="0 0 187.354 151.469" enable-background="new 0 0 187.354 151.469"
	 xml:space="preserve" class="logo" preserveAspectRatio="xMinYMin meet">
<g>
	<g>
		<g>
			<path fill="#FFFFFF" d="M42.012,54.796l-2.296-10.868H22.188l-2.296,10.868l-1.072-0.229l2.296-10.639h-1.378v-1.072h1.607
				l9.109-42.252h0.995l11.635,53.963L42.012,54.796z M22.417,42.856h17.069L30.914,3.283L22.417,42.856z"/>
			<path fill="#FFFFFF" d="M20.003,54.967l-1.354-0.289l0.031-0.141l2.258-10.465h-1.343v-1.36h1.635L30.338,0.46h1.227
				l11.69,54.218l-1.354,0.289l-2.302-10.895H22.305L20.003,54.967z M22.071,43.784h17.762l2.291,10.841l0.789-0.169L31.333,0.748
				h-0.762L21.462,43h-1.579v0.784h1.412l-2.303,10.673l0.789,0.169L22.071,43.784z M39.665,43H22.239l8.674-40.401L39.665,43z
				 M22.596,42.711h16.712L30.914,3.966L22.596,42.711z"/>
		</g>
		<g>
			<path fill="#FFFFFF" d="M71.711,53.802v1.071H47.6v-1.071h1.072V0.604h1.071v53.198H71.711z"/>
			<path fill="#FFFFFF" d="M71.855,55.017h-24.4v-1.359h1.072V0.46h1.359v53.198h21.968V55.017z M47.744,54.729h23.823v-0.783
				H49.599V0.748h-0.783v53.198h-1.072V54.729z"/>
		</g>
		<g>
			<path fill="#FFFFFF" d="M76.533,1.139v53.734h-1.072V1.139H76.533z"/>
			<path fill="#FFFFFF" d="M76.677,55.017h-1.36V0.995h1.36V55.017z M75.605,54.729h0.783V1.283h-0.783V54.729z"/>
		</g>
		<g>
			<path fill="#FFFFFF" d="M98.73,12.468v42.787h-1.072V12.927L81.278,2.211v53.045h-1.072V0.91h0.995h0.076v0.077l16.38,10.716
				V0.91h1.072v11.482h0.076L98.73,12.468z"/>
			<path fill="#FFFFFF" d="M98.874,55.4h-1.36V13.005L81.422,2.477V55.4h-1.36V0.765h1.36v0.143l16.092,10.528V0.765h1.36v11.482
				h0.278l-0.278,0.28V55.4z M97.802,55.111h0.783V1.054h-0.783v10.916L81.134,1.054H80.35v54.058h0.783V1.944l16.669,10.905V55.111
				z"/>
		</g>
		<g>
			<path fill="#FFFFFF" d="M126.438,53.878v1.072h-24.188v-1.072h1.072V11.779h-0.995v-1.071h0.995V1.216V0.681V0.144h17.758v1.072
				h-16.687v9.491h8.649v1.071h-8.649v42.099H126.438z"/>
			<path fill="#FFFFFF" d="M126.582,55.094h-24.476v-1.36h1.072V11.923h-0.995v-1.359h0.995V0h18.046v1.36h-16.687v9.203h8.649
				v1.359h-8.649v41.811h22.045V55.094z M102.395,54.806h23.899v-0.784h-22.045V11.635h8.649v-0.783h-8.649v-9.78h16.687V0.288
				h-17.47v10.563h-0.995v0.783h0.995v42.387h-1.072V54.806z"/>
		</g>
	</g>
	<g>
		<g>
			<path fill="#FFFFFF" d="M36.193,77.13c2.143,2.093,3.762,4.478,4.861,7.157c1.097,2.679,1.645,5.525,1.645,8.535
				c0,2.909-0.664,5.817-1.99,8.726c-1.327,2.603-3.138,4.95-5.435,7.042c-2.296,2.093-4.886,3.7-7.769,4.823
				c-2.883,1.123-5.856,1.684-8.917,1.684v-1.071h0.765V60.673h0.995v-0.077c1.632,0,3.01,0.511,4.134,1.531
				c1.122,1.021,1.684,2.296,1.684,3.827c0,1.634-0.562,3.012-1.684,4.133c-0.306,0.358-0.664,0.664-1.072,0.918
				c2.449,0.307,4.758,0.983,6.927,2.029C32.505,74.082,34.457,75.446,36.193,77.13z M25.094,65.955
				c0-1.275-0.459-2.296-1.378-3.062c-0.817-0.714-1.914-1.122-3.292-1.224v9.108c1.275,0,2.373-0.472,3.292-1.416
				C24.634,68.417,25.094,67.283,25.094,65.955z M39.714,101.089c1.275-2.603,1.914-5.358,1.914-8.267
				c0-2.857-0.536-5.561-1.607-8.113c-1.072-2.551-2.603-4.823-4.593-6.813c-1.99-1.939-4.261-3.418-6.813-4.439
				c-2.552-1.02-5.281-1.556-8.19-1.608v42.099c2.603-0.203,5.115-0.828,7.54-1.876c2.423-1.045,4.631-2.461,6.621-4.248
				c1.122-1.02,2.105-2.092,2.947-3.215C38.374,103.488,39.101,102.313,39.714,101.089z"/>
			<path fill="#FFFFFF" d="M18.588,115.24h-0.144v-1.359h0.765V60.529h0.995v-0.077h0.144c1.662,0,3.085,0.528,4.23,1.568
				c1.149,1.046,1.731,2.369,1.731,3.934c0,1.665-0.581,3.09-1.726,4.235c-0.227,0.266-0.49,0.509-0.78,0.724
				c2.316,0.328,4.533,0.997,6.596,1.992c2.174,1.049,4.156,2.436,5.894,4.121c2.147,2.097,3.793,4.522,4.894,7.206
				c1.099,2.685,1.656,5.574,1.656,8.59c0,2.915-0.674,5.871-2.003,8.785c-1.332,2.613-3.171,4.996-5.469,7.089
				c-2.296,2.093-4.925,3.725-7.814,4.85C24.672,114.67,21.654,115.24,18.588,115.24z M18.732,114.169v0.783
				c2.981-0.018,5.914-0.581,8.721-1.674c2.856-1.112,5.455-2.725,7.724-4.795c2.272-2.069,4.09-4.425,5.403-7.001
				c1.309-2.871,1.974-5.786,1.974-8.66c0-2.977-0.55-5.831-1.635-8.48c-1.085-2.648-2.71-5.039-4.828-7.109
				c-1.715-1.663-3.672-3.032-5.818-4.068c-2.146-1.034-4.461-1.712-6.882-2.015l-0.403-0.051l0.345-0.215
				c0.393-0.245,0.743-0.544,1.039-0.89c1.097-1.097,1.649-2.453,1.649-4.039c0-1.48-0.551-2.732-1.637-3.721
				c-1.058-0.961-2.367-1.462-3.892-1.492v0.075h-0.995v53.351H18.732z M20.28,114.103V71.702l0.147,0.003
				c2.913,0.052,5.685,0.596,8.241,1.618c2.559,1.024,4.867,2.528,6.86,4.469c1.995,1.995,3.551,4.303,4.625,6.861
				c1.074,2.559,1.619,5.307,1.619,8.169c0,2.914-0.649,5.717-1.928,8.33c-0.616,1.232-1.355,2.423-2.196,3.544
				c-0.841,1.123-1.839,2.211-2.965,3.235c-1.993,1.789-4.234,3.227-6.661,4.274c-2.428,1.049-4.98,1.684-7.585,1.887L20.28,114.103
				z M20.569,71.996v41.795c2.52-0.214,4.988-0.836,7.338-1.852c2.399-1.035,4.613-2.455,6.582-4.223
				c1.112-1.011,2.097-2.086,2.928-3.194c0.831-1.106,1.56-2.283,2.168-3.499c1.26-2.572,1.899-5.332,1.899-8.203
				c0-2.823-0.537-5.534-1.596-8.058c-1.06-2.523-2.595-4.799-4.562-6.767c-1.964-1.913-4.241-3.397-6.764-4.407
				C26.081,72.599,23.392,72.062,20.569,71.996z M20.425,70.921H20.28v-9.408l0.155,0.012c1.402,0.104,2.538,0.527,3.376,1.259
				c0.946,0.788,1.427,1.856,1.427,3.17c0,1.359-0.477,2.539-1.418,3.507C22.877,70.43,21.735,70.921,20.425,70.921z M20.569,61.825
				v8.806c1.169-0.035,2.193-0.495,3.044-1.37c0.887-0.912,1.337-2.024,1.337-3.306c0-1.225-0.446-2.218-1.326-2.951
				C22.862,62.338,21.836,61.943,20.569,61.825z"/>
		</g>
		<g>
			<path fill="#FFFFFF" d="M62.522,66.797c2.092,1.99,3.686,4.286,4.784,6.888c1.097,2.603,1.646,5.358,1.646,8.267
				c0,2.859-0.664,5.691-1.99,8.496c-1.225,2.501-2.96,4.798-5.205,6.889c-1.888,1.684-3.98,3.05-6.277,4.095
				c-2.296,1.047-4.669,1.723-7.118,2.029l13.089,10.792l-0.689,0.842l-13.395-11.022v10.486h-1.071v-10.946h-0.689v-1.071h0.689
				V60.673h0.842v-0.077c2.908,0,5.676,0.536,8.305,1.608C58.069,63.276,60.429,64.807,62.522,66.797z M65.967,89.99
				c1.275-2.551,1.914-5.23,1.914-8.037c0-2.756-0.524-5.358-1.569-7.807c-1.046-2.449-2.564-4.643-4.554-6.582
				c-1.94-1.888-4.133-3.33-6.583-4.325c-2.449-0.995-5.052-1.518-7.807-1.569v40.797c2.5-0.203,4.924-0.815,7.272-1.837
				c2.346-1.02,4.465-2.398,6.353-4.133C63.135,94.557,64.792,92.389,65.967,89.99z"/>
			<path fill="#FFFFFF" d="M60.782,115.299l-0.111-0.092l-13.16-10.828v10.326h-1.359v-10.946h-0.689v-1.36h0.689V60.529h0.842
				v-0.077h0.144c2.914,0,5.726,0.544,8.36,1.618c2.631,1.073,5.028,2.628,7.125,4.622c2.095,1.993,3.716,4.326,4.818,6.937
				c1.1,2.611,1.657,5.411,1.657,8.323c0,2.866-0.674,5.745-2.004,8.558c-1.228,2.507-2.99,4.839-5.238,6.933
				c-1.895,1.69-4.018,3.075-6.315,4.121c-2.194,1-4.49,1.672-6.831,1.997l12.944,10.673L60.782,115.299z M47.222,103.768
				l13.52,11.124l0.506-0.619l-13.236-10.914l0.332-0.041c2.426-0.303,4.807-0.982,7.077-2.017c2.27-1.033,4.369-2.403,6.24-4.071
				c2.22-2.068,3.96-4.372,5.172-6.845c1.311-2.772,1.975-5.61,1.975-8.433c0-2.874-0.55-5.636-1.635-8.211
				c-1.086-2.573-2.684-4.874-4.751-6.84c-2.07-1.969-4.437-3.504-7.035-4.564c-2.555-1.042-5.282-1.579-8.107-1.597v0.076h-0.842
				v41.869H45.75v0.783h0.689v10.946h0.783V103.768z M47.222,102.622v-41.1l0.147,0.003c2.761,0.051,5.406,0.582,7.859,1.579
				c2.454,0.997,4.684,2.463,6.629,4.355c1.995,1.944,3.538,4.174,4.586,6.629c1.049,2.458,1.581,5.104,1.581,7.864
				c0,2.815-0.649,5.541-1.929,8.102c-1.177,2.405-2.862,4.609-5.008,6.549c-1.89,1.737-4.041,3.136-6.392,4.158
				c-2.351,1.023-4.813,1.645-7.318,1.848L47.222,102.622z M47.51,61.816v40.493c2.419-0.214,4.797-0.823,7.07-1.812
				c2.321-1.009,4.445-2.391,6.313-4.107c2.119-1.916,3.782-4.091,4.943-6.464c1.26-2.521,1.899-5.204,1.899-7.974
				c0-2.721-0.524-5.328-1.558-7.751c-1.033-2.419-2.555-4.618-4.522-6.536c-1.918-1.867-4.117-3.312-6.536-4.295
				C52.742,62.405,50.183,61.882,47.51,61.816z"/>
		</g>
		<g>
			<path fill="#FFFFFF" d="M96.813,114.1v1.072H72.625V114.1h1.072V72.001h-0.995V70.93h0.995v-9.491v-0.536v-0.537h17.758v1.072
				H74.768v9.491h8.649v1.071h-8.649V114.1H96.813z"/>
			<path fill="#FFFFFF" d="M96.957,115.317H72.481v-1.361h1.072V72.146h-0.995v-1.359h0.995V60.223h18.046v1.36H74.912v9.203h8.649
				v1.359h-8.649v41.811h22.045V115.317z M72.77,115.028h23.899v-0.784H74.624V71.857h8.649v-0.783h-8.649v-9.78h16.687v-0.784
				h-17.47v10.563h-0.995v0.783h0.995v42.387H72.77V115.028z"/>
		</g>
		<g>
			<path fill="#FFFFFF" d="M122.837,61.515h-11.482v53.581h-1.072V61.515H98.726v-1.071h24.111V61.515z"/>
			<path fill="#FFFFFF" d="M111.499,115.24h-1.36V61.659H98.581v-1.36h24.4v1.36h-11.482V115.24z M110.428,114.952h0.783V61.371
				h11.482v-0.783H98.87v0.783h11.558V114.952z"/>
		</g>
		<g>
			<path fill="#FFFFFF" d="M146.872,115.019l-2.296-10.868h-17.528l-2.296,10.868l-1.072-0.229l2.296-10.639h-1.378v-1.072h1.607
				l9.109-42.252h0.995l11.635,53.963L146.872,115.019z M127.277,103.078h17.069l-8.573-39.573L127.277,103.078z"/>
			<path fill="#FFFFFF" d="M146.761,115.19l-2.302-10.895h-17.295l-2.301,10.895l-1.354-0.289l2.289-10.606h-1.344v-1.361h1.635
				l9.109-42.252h1.227l11.69,54.218L146.761,115.19z M123.851,114.679l0.789,0.169l2.29-10.841h17.762l2.291,10.841l0.789-0.169
				L136.192,60.97h-0.762l-9.109,42.252h-1.58v0.784h1.412L123.851,114.679z M144.525,103.222h-17.426l8.674-40.401L144.525,103.222
				z M127.455,102.934h16.712l-8.393-38.745L127.455,102.934z"/>
		</g>
		<g>
			<path fill="#FFFFFF" d="M170.064,77.589c1.378,0.715,3.049,1.596,5.014,2.641c1.964,1.046,3.852,2.334,5.664,3.865
				c1.811,1.531,3.342,3.318,4.593,5.358c1.25,2.042,1.875,4.363,1.875,6.965c0,2.501-0.434,4.899-1.301,7.195
				c-0.868,2.296-2.118,4.338-3.751,6.124c-1.634,1.787-3.509,3.152-5.626,4.095c-2.118,0.945-4.351,1.416-6.697,1.416
				c-2.296,0-4.491-0.408-6.583-1.224c-2.093-0.816-3.981-2.016-5.664-3.597c-1.634-1.531-2.897-3.216-3.789-5.052
				c-0.893-1.837-1.34-3.699-1.34-5.588h1.072c0,1.736,0.421,3.458,1.263,5.167c0.842,1.71,2.029,3.253,3.559,4.631
				c1.581,1.481,3.355,2.616,5.32,3.407c1.964,0.791,4.019,1.186,6.162,1.186c2.244,0,4.363-0.46,6.353-1.378
				s3.724-2.181,5.205-3.789c1.479-1.607,2.641-3.495,3.483-5.664c0.842-2.168,1.263-4.478,1.263-6.927s-0.612-4.631-1.837-6.544
				c-1.225-1.914-2.705-3.597-4.44-5.052c-1.735-1.454-3.547-2.69-5.435-3.712c-1.888-1.019-3.495-1.862-4.822-2.525
				c-0.664-0.307-1.467-0.714-2.411-1.225c-0.945-0.51-1.837-1.135-2.679-1.876c-0.842-0.739-1.569-1.594-2.181-2.564
				c-0.612-0.968-0.918-2.092-0.918-3.368c0-1.275,0.216-2.461,0.651-3.559c0.433-1.096,1.033-2.054,1.799-2.87
				c0.765-0.815,1.658-1.466,2.679-1.952c1.02-0.485,2.117-0.727,3.292-0.727v1.071c-1.022,0-1.979,0.218-2.87,0.651
				c-0.893,0.435-1.672,1.008-2.335,1.723c-0.664,0.715-1.186,1.557-1.569,2.526s-0.574,2.016-0.574,3.138
				c0,1.071,0.28,2.042,0.842,2.909c0.561,0.868,1.237,1.634,2.029,2.296c0.79,0.664,1.619,1.224,2.487,1.684
				C168.712,76.901,169.452,77.284,170.064,77.589z"/>
			<path fill="#FFFFFF" d="M169.835,115.393c-2.304,0-4.537-0.415-6.635-1.234c-2.099-0.819-4.021-2.039-5.711-3.627
				c-1.639-1.536-2.924-3.25-3.82-5.094c-0.898-1.847-1.354-3.749-1.354-5.651v-0.144h1.36v0.144c0,1.706,0.42,3.423,1.248,5.104
				c0.83,1.685,2.016,3.228,3.527,4.587c1.562,1.463,3.336,2.599,5.277,3.38c1.937,0.78,3.992,1.176,6.108,1.176
				c2.213,0,4.33-0.459,6.292-1.365c1.963-0.906,3.698-2.169,5.159-3.756c1.461-1.587,2.624-3.477,3.455-5.618
				c0.831-2.142,1.253-4.455,1.253-6.875c0-2.41-0.61-4.586-1.814-6.467c-1.21-1.89-2.694-3.579-4.411-5.02
				c-1.715-1.437-3.535-2.68-5.411-3.696c-1.893-1.022-3.514-1.871-4.818-2.523c-0.662-0.306-1.477-0.719-2.415-1.227
				c-0.946-0.51-1.856-1.148-2.706-1.894c-0.847-0.743-1.59-1.616-2.208-2.596c-0.624-0.987-0.941-2.146-0.941-3.445
				c0-1.289,0.222-2.504,0.66-3.612c0.438-1.108,1.053-2.089,1.828-2.916c0.775-0.826,1.691-1.493,2.722-1.983
				c1.036-0.492,2.164-0.741,3.354-0.741h0.144v1.36h-0.144c-0.993,0-1.938,0.214-2.808,0.636c-0.875,0.426-1.646,0.995-2.292,1.691
				c-0.648,0.699-1.166,1.534-1.541,2.481c-0.374,0.947-0.564,1.985-0.564,3.085c0,1.04,0.275,1.992,0.819,2.831
				c0.551,0.853,1.224,1.614,2,2.264c0.776,0.652,1.604,1.213,2.462,1.667c0.858,0.454,1.604,0.84,2.217,1.146
				c1.358,0.705,3.046,1.594,5.017,2.643c1.967,1.048,3.881,2.354,5.689,3.883c1.814,1.533,3.369,3.348,4.623,5.393
				c1.258,2.056,1.896,4.424,1.896,7.04c0,2.504-0.441,4.942-1.311,7.246c-0.871,2.305-2.143,4.38-3.779,6.17
				c-1.639,1.793-3.548,3.182-5.674,4.13C174.467,114.912,172.194,115.393,169.835,115.393z M152.604,99.931
				c0.023,1.81,0.468,3.62,1.324,5.381c0.88,1.813,2.145,3.499,3.758,5.01c1.663,1.562,3.553,2.763,5.618,3.569
				c2.065,0.806,4.262,1.214,6.531,1.214c2.318,0,4.552-0.472,6.638-1.404c2.089-0.931,3.966-2.297,5.578-4.06
				c1.612-1.763,2.864-3.807,3.722-6.077c0.857-2.271,1.292-4.675,1.292-7.144c0-2.562-0.624-4.88-1.854-6.89
				c-1.238-2.019-2.773-3.81-4.563-5.323c-1.793-1.515-3.69-2.81-5.639-3.848c-1.97-1.048-3.657-1.937-5.012-2.64
				c-0.613-0.306-1.361-0.693-2.221-1.149c-0.875-0.464-1.72-1.036-2.512-1.701c-0.799-0.668-1.491-1.452-2.057-2.328
				c-0.574-0.886-0.865-1.891-0.865-2.987c0-1.136,0.197-2.209,0.584-3.191c0.387-0.981,0.925-1.846,1.597-2.571
				c0.67-0.723,1.47-1.313,2.377-1.754c0.867-0.421,1.805-0.644,2.789-0.664v-0.783c-1.093,0.019-2.131,0.259-3.086,0.712
				c-0.999,0.475-1.886,1.121-2.636,1.92c-0.75,0.8-1.345,1.75-1.77,2.824c-0.425,1.075-0.64,2.254-0.64,3.506
				c0,1.243,0.302,2.35,0.896,3.291c0.603,0.956,1.328,1.808,2.155,2.533c0.833,0.732,1.726,1.357,2.653,1.857
				c0.934,0.505,1.742,0.916,2.403,1.221c1.31,0.655,2.934,1.506,4.83,2.529c1.893,1.025,3.729,2.28,5.459,3.729
				c1.74,1.459,3.243,3.17,4.469,5.085c1.234,1.928,1.859,4.156,1.859,6.622c0,2.456-0.428,4.804-1.272,6.979
				c-0.844,2.175-2.026,4.096-3.511,5.71c-1.487,1.615-3.253,2.901-5.25,3.823c-2.001,0.923-4.159,1.391-6.413,1.391
				c-2.153,0-4.245-0.403-6.216-1.197c-1.974-0.794-3.779-1.95-5.364-3.435c-1.535-1.382-2.744-2.955-3.59-4.672
				c-0.825-1.673-1.254-3.383-1.277-5.087H152.604z"/>
		</g>
	</g>
	<g>
		<g>
			<path fill="#FFFFFF" d="M18.811,120.385h0.607v6.016c0.683-1.633,1.923-2.448,3.72-2.448c1.442,0,2.549,0.519,3.321,1.556
				c0.683,0.911,1.025,2.114,1.025,3.606c0,1.506-0.341,2.714-1.025,3.625c-0.759,1.013-1.866,1.518-3.321,1.518
				c-1.721,0-2.961-0.777-3.72-2.334v2.088h-0.607V120.385z M20.273,132.322c0.658,0.949,1.613,1.423,2.866,1.423
				s2.214-0.474,2.885-1.423c0.569-0.81,0.854-1.879,0.854-3.208c0-1.315-0.284-2.384-0.854-3.207
				c-0.671-0.949-1.632-1.423-2.885-1.423c-1.265,0-2.22,0.474-2.866,1.423c-0.569,0.823-0.854,1.892-0.854,3.207
				C19.419,130.443,19.703,131.512,20.273,132.322z"/>
			<path fill="#FFFFFF" d="M23.139,134.401c-1.58,0-2.78-0.645-3.576-1.919v1.673h-0.896v-13.914h0.896v5.538
				c0.744-1.308,1.944-1.97,3.576-1.97c1.483,0,2.64,0.543,3.437,1.614c0.699,0.932,1.053,2.174,1.053,3.692
				c0,1.531-0.354,2.78-1.054,3.712C25.792,133.871,24.636,134.401,23.139,134.401z M19.275,131.298l0.274,0.562
				c0.739,1.516,1.914,2.253,3.59,2.253c1.401,0,2.48-0.491,3.206-1.46c0.661-0.881,0.996-2.072,0.996-3.539
				c0-1.454-0.335-2.638-0.996-3.519c-0.74-0.994-1.819-1.498-3.206-1.498c-1.749,0-2.923,0.772-3.587,2.36l-0.277,0.662v-6.59
				h-0.319v13.338h0.319V131.298z M23.139,133.89c-1.297,0-2.301-0.5-2.984-1.485c-0.583-0.83-0.879-1.937-0.879-3.29
				c0-1.339,0.296-2.446,0.879-3.289c0.67-0.986,1.675-1.486,2.984-1.486c1.296,0,2.306,0.499,3.002,1.484
				c0.584,0.845,0.88,1.952,0.88,3.29c0,1.353-0.296,2.46-0.88,3.291C25.445,133.39,24.435,133.89,23.139,133.89z M23.139,124.628
				c-1.226,0-2.124,0.445-2.747,1.36c-0.55,0.795-0.829,1.847-0.829,3.126c0,1.293,0.278,2.344,0.828,3.125
				c0.636,0.917,1.534,1.362,2.748,1.362c1.214,0,2.119-0.446,2.767-1.363c0.549-0.781,0.827-1.832,0.827-3.125
				c0-1.279-0.279-2.331-0.828-3.125C25.258,125.073,24.353,124.628,23.139,124.628z"/>
		</g>
		<g>
			<path fill="#FFFFFF" d="M37.145,134.257c-1.404,0-2.473-0.518-3.207-1.556c-0.645-0.923-0.968-2.119-0.968-3.587
				c0-1.467,0.323-2.657,0.968-3.568c0.734-1.063,1.803-1.594,3.207-1.594c1.379,0,2.429,0.474,3.151,1.423
				c0.657,0.848,0.987,1.987,0.987,3.416v0.36h-7.686v0.152c0,1.215,0.284,2.227,0.854,3.037c0.645,0.937,1.543,1.405,2.695,1.405
				c1.594,0,2.676-0.747,3.246-2.24l0.493,0.266c-0.253,0.67-0.652,1.22-1.196,1.65C38.98,133.979,38.132,134.257,37.145,134.257z
				 M40.637,128.602c0-1.151-0.272-2.1-0.816-2.847c-0.607-0.847-1.461-1.271-2.562-1.271c-1.138,0-2.03,0.411-2.676,1.233
				c-0.569,0.747-0.892,1.709-0.968,2.885H40.637z"/>
			<path fill="#FFFFFF" d="M37.145,134.401c-1.448,0-2.566-0.544-3.325-1.617c-0.66-0.945-0.994-2.18-0.994-3.671
				c0-1.491,0.334-2.719,0.994-3.651c0.758-1.097,1.877-1.655,3.325-1.655c1.42,0,2.519,0.498,3.266,1.48
				c0.674,0.87,1.016,2.049,1.016,3.503v0.505l-7.686,0.008c0,1.179,0.278,2.173,0.828,2.954c0.623,0.904,1.466,1.343,2.577,1.343
				c1.542,0,2.56-0.702,3.111-2.147l0.058-0.154l0.749,0.404l-0.044,0.118c-0.262,0.693-0.68,1.269-1.242,1.713
				C39.047,134.11,38.161,134.401,37.145,134.401z M37.145,124.097c-1.367,0-2.377,0.501-3.089,1.532
				c-0.626,0.884-0.942,2.056-0.942,3.486c0,1.431,0.317,2.61,0.942,3.505c0.711,1.005,1.722,1.494,3.089,1.494
				c0.95,0,1.776-0.271,2.454-0.804c0.488-0.386,0.859-0.88,1.104-1.471l-0.238-0.129c-0.606,1.447-1.722,2.18-3.319,2.18
				c-1.196,0-2.143-0.494-2.814-1.467c-0.583-0.829-0.879-1.879-0.879-3.118v-0.296h7.687v-0.216c0-1.389-0.322-2.508-0.957-3.327
				C39.491,124.556,38.47,124.097,37.145,124.097z M40.781,128.746h-7.32l0.01-0.153c0.078-1.2,0.413-2.196,0.997-2.963
				c0.673-0.857,1.611-1.29,2.79-1.29c1.144,0,2.046,0.448,2.68,1.332c0.559,0.768,0.843,1.754,0.843,2.931V128.746z M33.77,128.457
				h6.721c-0.022-1.051-0.287-1.931-0.787-2.618c-0.585-0.816-1.385-1.212-2.446-1.212c-1.086,0-1.949,0.396-2.562,1.178
				C34.173,126.492,33.862,127.384,33.77,128.457z"/>
		</g>
		<g>
			<path fill="#FFFFFF" d="M47.242,120.385h0.588v13.626h-0.588V120.385z"/>
			<path fill="#FFFFFF" d="M47.974,134.155h-0.877v-13.914h0.877V134.155z M47.386,133.867h0.3v-13.338h-0.3V133.867z"/>
		</g>
		<g>
			<path fill="#FFFFFF" d="M57.983,134.257c-1.404,0-2.473-0.518-3.207-1.556c-0.645-0.923-0.968-2.119-0.968-3.587
				c0-1.467,0.323-2.657,0.968-3.568c0.734-1.063,1.803-1.594,3.207-1.594c1.379,0,2.429,0.474,3.151,1.423
				c0.657,0.848,0.987,1.987,0.987,3.416v0.36h-7.686v0.152c0,1.215,0.284,2.227,0.854,3.037c0.645,0.937,1.543,1.405,2.695,1.405
				c1.594,0,2.676-0.747,3.246-2.24l0.493,0.266c-0.253,0.67-0.652,1.22-1.196,1.65C59.818,133.979,58.97,134.257,57.983,134.257z
				 M61.475,128.602c0-1.151-0.272-2.1-0.816-2.847c-0.607-0.847-1.461-1.271-2.562-1.271c-1.138,0-2.03,0.411-2.676,1.233
				c-0.569,0.747-0.892,1.709-0.968,2.885H61.475z"/>
			<path fill="#FFFFFF" d="M57.983,134.401c-1.448,0-2.566-0.544-3.325-1.617c-0.66-0.945-0.994-2.18-0.994-3.671
				c0-1.491,0.334-2.719,0.994-3.651c0.758-1.097,1.877-1.655,3.325-1.655c1.42,0,2.519,0.498,3.266,1.48
				c0.674,0.869,1.016,2.048,1.016,3.503v0.505l-7.687,0.008c0,1.179,0.278,2.173,0.828,2.954c0.623,0.904,1.466,1.343,2.577,1.343
				c1.542,0,2.56-0.702,3.111-2.147l0.059-0.153l0.749,0.404l-0.044,0.118c-0.262,0.692-0.679,1.268-1.242,1.713
				C59.885,134.11,58.999,134.401,57.983,134.401z M57.983,124.097c-1.367,0-2.377,0.501-3.089,1.532
				c-0.626,0.884-0.942,2.056-0.942,3.486c0,1.431,0.317,2.61,0.942,3.505c0.711,1.005,1.722,1.494,3.089,1.494
				c0.95,0,1.776-0.271,2.454-0.804c0.488-0.386,0.859-0.88,1.104-1.471l-0.238-0.129c-0.606,1.447-1.722,2.18-3.319,2.18
				c-1.196,0-2.143-0.494-2.814-1.467c-0.583-0.83-0.879-1.879-0.879-3.118v-0.296h7.687v-0.216c0-1.389-0.322-2.509-0.957-3.327
				C60.33,124.556,59.308,124.097,57.983,124.097z M61.619,128.746h-7.32l0.01-0.153c0.078-1.2,0.413-2.197,0.997-2.963
				c0.673-0.857,1.611-1.29,2.79-1.29c1.144,0,2.046,0.448,2.679,1.332c0.559,0.767,0.843,1.754,0.843,2.931V128.746z
				 M54.609,128.457h6.721c-0.022-1.051-0.287-1.931-0.787-2.618c-0.585-0.816-1.385-1.212-2.446-1.212
				c-1.086,0-1.949,0.396-2.562,1.178C55.011,126.492,54.7,127.384,54.609,128.457z"/>
		</g>
		<g>
			<path fill="#FFFFFF" d="M67.036,133.308l6.795-8.559h-6.415v-0.588h7.06v0.702l-6.795,8.559h7.003v0.588h-7.648V133.308z"/>
			<path fill="#FFFFFF" d="M74.828,134.155h-7.937v-0.897l0.031-0.039l6.609-8.325h-6.26v-0.877h7.348v0.897l-0.031,0.039
				l-6.609,8.325h6.849V134.155z M67.18,133.867h7.36v-0.3h-7.157l6.949-8.753v-0.508H67.56v0.3h6.569l-6.949,8.753V133.867z"/>
		</g>
		<g>
			<path fill="#FFFFFF" d="M84.022,134.257c-1.43,0-2.537-0.505-3.321-1.518c-0.683-0.923-1.025-2.131-1.025-3.625
				c0-1.505,0.341-2.713,1.025-3.624c0.759-1.025,1.866-1.537,3.321-1.537c1.834,0,3.075,0.823,3.72,2.467v-2.258h0.588v9.85h-0.588
				v-2.126C87.109,133.467,85.869,134.257,84.022,134.257z M81.137,132.322c0.658,0.949,1.619,1.423,2.885,1.423
				c1.265,0,2.22-0.474,2.866-1.423c0.569-0.81,0.854-1.879,0.854-3.208c0-1.315-0.285-2.384-0.854-3.207
				c-0.645-0.949-1.601-1.423-2.866-1.423c-1.265,0-2.22,0.474-2.866,1.423c-0.582,0.81-0.873,1.879-0.873,3.207
				C80.283,130.443,80.567,131.512,81.137,132.322z"/>
			<path fill="#FFFFFF" d="M84.022,134.401c-1.47,0-2.626-0.53-3.435-1.573c-0.701-0.946-1.055-2.195-1.055-3.714
				c0-1.53,0.355-2.779,1.054-3.711c0.783-1.058,1.94-1.595,3.437-1.595c1.655,0,2.855,0.66,3.575,1.963v-1.754h0.877v10.138h-0.877
				v-1.637C86.885,133.768,85.685,134.401,84.022,134.401z M84.022,124.097c-1.4,0-2.479,0.498-3.206,1.479
				c-0.661,0.881-0.997,2.071-0.997,3.538c0,1.455,0.335,2.647,0.997,3.54c0.75,0.968,1.829,1.459,3.206,1.459
				c1.798,0,2.972-0.746,3.586-2.281l0.278-0.695v2.73h0.3v-9.562h-0.3v2.876l-0.278-0.709
				C86.98,124.874,85.807,124.097,84.022,124.097z M84.022,133.89c-1.309,0-2.32-0.5-3.004-1.485
				c-0.583-0.83-0.879-1.937-0.879-3.29c0-1.353,0.303-2.46,0.9-3.291c0.669-0.983,1.673-1.483,2.983-1.483
				c1.31,0,2.314,0.5,2.985,1.486c0.583,0.842,0.879,1.949,0.879,3.288c0,1.353-0.296,2.461-0.88,3.291
				C86.336,133.39,85.331,133.89,84.022,133.89z M84.022,124.628c-1.226,0-2.124,0.445-2.747,1.36
				c-0.563,0.784-0.848,1.835-0.848,3.126c0,1.292,0.278,2.344,0.828,3.126c0.636,0.917,1.541,1.362,2.767,1.362
				c1.225,0,2.124-0.445,2.747-1.36c0.55-0.783,0.829-1.834,0.829-3.127c0-1.28-0.279-2.331-0.828-3.125
				C86.146,125.073,85.247,124.628,84.022,124.628z"/>
		</g>
		<g>
			<path fill="#FFFFFF" d="M109.966,133.366c-0.709,0.595-1.601,0.891-2.676,0.891c-1.417,0-2.505-0.518-3.264-1.556
				c-0.671-0.936-1.006-2.131-1.006-3.587c0-1.492,0.342-2.695,1.025-3.606c0.759-1.037,1.86-1.556,3.302-1.556
				c1.784,0,2.954,0.714,3.511,2.144l-0.512,0.342c-0.164-0.481-0.468-0.904-0.911-1.271c-0.569-0.456-1.265-0.684-2.088-0.684
				c-1.265,0-2.22,0.474-2.866,1.423c-0.569,0.823-0.854,1.892-0.854,3.207c0,1.329,0.284,2.398,0.854,3.208
				c0.658,0.949,1.613,1.423,2.866,1.423c0.771,0,1.445-0.212,2.021-0.637c0.576-0.423,0.959-1.015,1.148-1.774l0.512,0.303
				C110.813,132.347,110.459,132.923,109.966,133.366z"/>
			<path fill="#FFFFFF" d="M107.29,134.401c-1.459,0-2.596-0.543-3.381-1.615c-0.686-0.957-1.034-2.193-1.034-3.673
				c0-1.517,0.354-2.76,1.053-3.692c0.783-1.07,1.934-1.613,3.418-1.613c1.841,0,3.068,0.752,3.646,2.236l0.042,0.108l-0.765,0.51
				l-0.061-0.177c-0.155-0.452-0.446-0.858-0.867-1.207c-0.539-0.431-1.211-0.651-1.996-0.651c-1.225,0-2.124,0.445-2.747,1.36
				c-0.55,0.795-0.829,1.847-0.829,3.126c0,1.293,0.278,2.344,0.828,3.125c0.636,0.917,1.534,1.362,2.748,1.362
				c0.736,0,1.388-0.205,1.936-0.608c0.546-0.401,0.914-0.971,1.094-1.693l0.047-0.188l0.776,0.459l-0.033,0.108
				c-0.221,0.731-0.593,1.334-1.104,1.793C109.327,134.09,108.395,134.401,107.29,134.401z M107.347,124.097
				c-1.387,0-2.459,0.504-3.186,1.497c-0.662,0.883-0.997,2.067-0.997,3.521c0,1.418,0.329,2.597,0.979,3.504
				c0.726,0.992,1.785,1.495,3.147,1.495c1.036,0,1.905-0.289,2.584-0.858c0.443-0.398,0.774-0.92,0.983-1.551l-0.251-0.149
				c-0.212,0.702-0.599,1.263-1.152,1.67c-0.599,0.441-1.307,0.665-2.107,0.665c-1.297,0-2.301-0.5-2.984-1.485
				c-0.583-0.83-0.879-1.937-0.879-3.29c0-1.339,0.296-2.446,0.879-3.289c0.67-0.986,1.675-1.486,2.984-1.486
				c0.852,0,1.585,0.241,2.178,0.715c0.41,0.34,0.708,0.731,0.891,1.164l0.265-0.176
				C110.127,124.733,109.035,124.097,107.347,124.097z"/>
		</g>
		<g>
			<path fill="#FFFFFF" d="M117.69,125.508c0.759-1.037,1.86-1.556,3.302-1.556c1.442,0,2.549,0.519,3.321,1.556
				c0.683,0.911,1.025,2.114,1.025,3.606c0,1.494-0.341,2.702-1.025,3.625c-0.784,1.013-1.891,1.518-3.321,1.518
				c-1.442,0-2.543-0.505-3.302-1.518c-0.683-0.923-1.025-2.131-1.025-3.625C116.665,127.622,117.007,126.419,117.69,125.508z
				 M118.126,132.322c0.658,0.949,1.613,1.423,2.866,1.423c1.252,0,2.214-0.474,2.885-1.423c0.569-0.81,0.854-1.879,0.854-3.208
				c0-1.315-0.285-2.384-0.854-3.207c-0.671-0.949-1.632-1.423-2.885-1.423c-1.265,0-2.22,0.474-2.866,1.423
				c-0.569,0.823-0.854,1.892-0.854,3.207C117.272,130.443,117.557,131.512,118.126,132.322z"/>
			<path fill="#FFFFFF" d="M120.992,134.401c-1.484,0-2.634-0.53-3.418-1.575c-0.699-0.945-1.054-2.194-1.054-3.712
				c0-1.517,0.354-2.76,1.054-3.692c0.783-1.07,1.934-1.613,3.418-1.613c1.483,0,2.64,0.543,3.437,1.614
				c0.699,0.932,1.053,2.174,1.053,3.692c0,1.519-0.354,2.767-1.053,3.711C123.619,133.872,122.463,134.401,120.992,134.401z
				 M120.992,124.097c-1.387,0-2.459,0.504-3.186,1.497c-0.662,0.883-0.997,2.067-0.997,3.521c0,1.455,0.335,2.646,0.997,3.54
				c0.725,0.968,1.798,1.459,3.186,1.459c1.377,0,2.456-0.492,3.207-1.462c0.66-0.89,0.995-2.082,0.995-3.537
				c0-1.454-0.335-2.638-0.996-3.519C123.458,124.601,122.379,124.097,120.992,124.097z M120.992,133.89
				c-1.297,0-2.301-0.5-2.984-1.485c-0.583-0.83-0.879-1.937-0.879-3.29c0-1.339,0.296-2.446,0.879-3.289
				c0.67-0.986,1.675-1.486,2.984-1.486c1.296,0,2.306,0.499,3.002,1.484c0.584,0.845,0.88,1.952,0.88,3.29
				c0,1.353-0.296,2.46-0.88,3.291C123.298,133.39,122.288,133.89,120.992,133.89z M120.992,124.628
				c-1.226,0-2.124,0.445-2.747,1.36c-0.55,0.795-0.829,1.847-0.829,3.126c0,1.293,0.278,2.344,0.828,3.125
				c0.636,0.917,1.534,1.362,2.748,1.362s2.119-0.446,2.767-1.363c0.549-0.781,0.827-1.832,0.827-3.125
				c0-1.279-0.279-2.331-0.828-3.125C123.111,125.073,122.206,124.628,120.992,124.628z"/>
		</g>
		<g>
			<path fill="#FFFFFF" d="M131.279,124.161h0.607v1.613c0.645-1.215,1.67-1.822,3.074-1.822c1.594,0,2.569,0.671,2.923,2.012
				c0.683-1.341,1.752-2.012,3.208-2.012c2.075,0,3.112,1.177,3.112,3.53v6.529h-0.607v-5.922c0-1.1-0.095-1.872-0.285-2.315
				c-0.354-0.848-1.101-1.271-2.239-1.271c-1.177,0-2.006,0.43-2.486,1.29c-0.367,0.671-0.55,1.639-0.55,2.904v5.314h-0.588v-5.922
				c0-1.1-0.095-1.872-0.285-2.315c-0.354-0.848-1.101-1.271-2.239-1.271c-1.683,0-2.664,0.835-2.942,2.505
				c-0.025,0.19-0.048,0.427-0.067,0.712c-0.019,0.284-0.028,0.611-0.028,0.978v5.314h-0.607V124.161z"/>
			<path fill="#FFFFFF" d="M144.347,134.155h-0.896v-6.066c0-1.075-0.092-1.835-0.273-2.258c-0.333-0.797-1.022-1.184-2.107-1.184
				c-1.131,0-1.903,0.398-2.361,1.216c-0.353,0.645-0.532,1.599-0.532,2.834v5.458h-0.877v-6.066c0-1.075-0.092-1.835-0.273-2.258
				c-0.333-0.797-1.022-1.184-2.107-1.184c-1.617,0-2.533,0.78-2.8,2.384c-0.024,0.181-0.046,0.418-0.065,0.698
				c-0.019,0.279-0.028,0.604-0.028,0.968v5.458h-0.896v-10.138h0.896v1.245c0.675-0.965,1.658-1.453,2.93-1.453
				c1.527,0,2.521,0.602,2.959,1.792c0.711-1.189,1.777-1.792,3.171-1.792c2.161,0,3.257,1.236,3.257,3.674V134.155z
				 M143.74,133.867h0.319v-6.384c0-2.278-0.971-3.386-2.968-3.386c-1.409,0-2.416,0.632-3.079,1.933l-0.171,0.336l-0.096-0.365
				c-0.338-1.282-1.249-1.905-2.783-1.905c-1.359,0-2.323,0.571-2.947,1.745l-0.271,0.511v-2.048h-0.319v9.562h0.319v-5.17
				c0-0.37,0.01-0.702,0.028-0.987c0.019-0.286,0.042-0.529,0.068-0.721c0.291-1.747,1.329-2.63,3.085-2.63
				c1.197,0,1.995,0.457,2.372,1.36c0.199,0.465,0.296,1.241,0.296,2.37v5.777h0.3v-5.17c0-1.284,0.191-2.284,0.568-2.973
				c0.506-0.906,1.385-1.365,2.613-1.365c1.197,0,1.995,0.457,2.372,1.36c0.199,0.465,0.296,1.241,0.296,2.37V133.867z"/>
		</g>
	</g>
	<g>
		<g>
			<path fill="#FFFFFF" d="M22.475,150.665c0.797,0,1.455-0.171,1.974-0.512c0.62-0.392,0.93-0.968,0.93-1.727
				c0-0.911-0.652-1.544-1.955-1.898c-0.038-0.013-0.098-0.032-0.18-0.057c-0.082-0.025-0.193-0.05-0.332-0.075
				c-1.607-0.418-2.644-0.81-3.112-1.177c-0.531-0.418-0.797-0.987-0.797-1.708c0-0.861,0.367-1.525,1.101-1.993
				c0.632-0.405,1.392-0.607,2.277-0.607c0.911,0,1.664,0.24,2.259,0.721c0.607,0.506,0.961,1.208,1.062,2.106h-0.588
				c-0.203-1.53-1.139-2.296-2.809-2.296c-0.696,0-1.29,0.152-1.784,0.456c-0.595,0.367-0.892,0.879-0.892,1.537
				c0,0.987,1.006,1.733,3.018,2.239c0.025,0.026,0.088,0.044,0.19,0.057c1.037,0.265,1.759,0.537,2.164,0.815
				c0.67,0.443,1.006,1.076,1.006,1.898c0,0.886-0.373,1.588-1.12,2.107c-0.671,0.442-1.468,0.664-2.391,0.664
				c-1.05,0-1.91-0.259-2.581-0.777c-0.696-0.557-1.088-1.354-1.177-2.392h0.588C19.64,149.791,20.691,150.665,22.475,150.665z"/>
			<path fill="#FFFFFF" d="M22.493,151.359c-1.079,0-1.977-0.272-2.669-0.808c-0.727-0.581-1.141-1.419-1.233-2.493l-0.014-0.157
				h0.866l0.021,0.119c0.304,1.683,1.289,2.501,3.008,2.501c0.764,0,1.401-0.164,1.895-0.489c0.583-0.369,0.865-0.894,0.865-1.607
				c0-0.845-0.605-1.421-1.848-1.759l-0.186-0.059c-0.073-0.022-0.18-0.046-0.314-0.07c-1.653-0.43-2.688-0.823-3.176-1.205
				c-0.566-0.445-0.853-1.057-0.853-1.821c0-0.909,0.393-1.621,1.168-2.115c0.653-0.418,1.445-0.63,2.355-0.63
				c0.941,0,1.731,0.253,2.35,0.753c0.635,0.529,1.01,1.27,1.115,2.202l0.018,0.16h-0.876l-0.017-0.125
				c-0.194-1.461-1.066-2.171-2.666-2.171c-0.665,0-1.24,0.146-1.708,0.435c-0.554,0.341-0.823,0.804-0.823,1.415
				c0,0.907,0.979,1.613,2.909,2.099l0.04,0.01l0.026,0.027c0-0.004,0.026,0.007,0.106,0.017c1.065,0.271,1.809,0.552,2.227,0.84
				c0.708,0.468,1.068,1.147,1.068,2.017c0,0.932-0.398,1.681-1.182,2.225C24.272,151.128,23.441,151.359,22.493,151.359z
				 M18.895,148.19c0.11,0.917,0.482,1.635,1.108,2.135c0.639,0.495,1.477,0.746,2.491,0.746c0.89,0,1.667-0.215,2.312-0.64
				c0.709-0.493,1.055-1.143,1.055-1.987c0-0.778-0.308-1.359-0.941-1.778c-0.393-0.269-1.105-0.537-2.12-0.796
				c-0.098-0.012-0.168-0.032-0.218-0.065c-2.055-0.522-3.097-1.32-3.097-2.371c0-0.709,0.323-1.267,0.96-1.66
				c0.514-0.317,1.14-0.477,1.859-0.477c1.7,0,2.686,0.773,2.934,2.296h0.299c-0.12-0.781-0.452-1.403-0.99-1.852
				c-0.564-0.456-1.293-0.687-2.167-0.687c-0.854,0-1.594,0.197-2.2,0.584c-0.696,0.444-1.035,1.057-1.035,1.872
				c0,0.68,0.243,1.202,0.742,1.594c0.449,0.352,1.479,0.74,3.06,1.151c0.137,0.024,0.251,0.05,0.338,0.077l0.185,0.059
				c1.359,0.369,2.053,1.055,2.053,2.035c0,0.809-0.335,1.431-0.997,1.849c-0.539,0.354-1.23,0.535-2.051,0.535
				c-1.815,0-2.914-0.881-3.269-2.62H18.895z"/>
		</g>
		<g>
			<path fill="#FFFFFF" d="M35.702,151.215c-1.404,0-2.473-0.518-3.207-1.556c-0.645-0.923-0.968-2.119-0.968-3.587
				c0-1.467,0.323-2.657,0.968-3.568c0.734-1.063,1.803-1.594,3.207-1.594c1.379,0,2.429,0.474,3.151,1.423
				c0.657,0.848,0.987,1.987,0.987,3.416v0.36h-7.686v0.152c0,1.215,0.284,2.227,0.854,3.037c0.645,0.937,1.543,1.405,2.695,1.405
				c1.594,0,2.676-0.747,3.246-2.24l0.493,0.266c-0.253,0.67-0.652,1.22-1.196,1.65C37.537,150.937,36.689,151.215,35.702,151.215z
				 M39.194,145.559c0-1.151-0.272-2.1-0.816-2.847c-0.607-0.847-1.461-1.271-2.562-1.271c-1.138,0-2.03,0.411-2.676,1.233
				c-0.569,0.747-0.892,1.709-0.968,2.885H39.194z"/>
			<path fill="#FFFFFF" d="M35.702,151.359c-1.448,0-2.566-0.544-3.325-1.617c-0.66-0.944-0.994-2.179-0.994-3.671
				c0-1.491,0.334-2.719,0.994-3.651c0.758-1.098,1.877-1.655,3.325-1.655c1.42,0,2.519,0.498,3.266,1.48
				c0.674,0.869,1.016,2.048,1.016,3.503v0.505l-7.687,0.008c0,1.179,0.278,2.173,0.828,2.954c0.623,0.904,1.466,1.343,2.577,1.343
				c1.542,0,2.56-0.702,3.111-2.147l0.058-0.153l0.749,0.403l-0.044,0.118c-0.262,0.693-0.68,1.269-1.242,1.713
				C37.604,151.068,36.718,151.359,35.702,151.359z M35.702,141.054c-1.367,0-2.377,0.501-3.089,1.532
				c-0.626,0.884-0.942,2.056-0.942,3.486c0,1.431,0.317,2.61,0.942,3.505c0.711,1.005,1.721,1.494,3.089,1.494
				c0.95,0,1.776-0.271,2.454-0.804c0.488-0.385,0.859-0.88,1.104-1.471l-0.238-0.128c-0.606,1.447-1.722,2.18-3.319,2.18
				c-1.196,0-2.142-0.494-2.814-1.467c-0.583-0.83-0.879-1.879-0.879-3.119v-0.296h7.687v-0.216c0-1.389-0.322-2.509-0.957-3.327
				C38.049,141.514,37.027,141.054,35.702,141.054z M39.339,145.703h-7.32l0.01-0.153c0.077-1.2,0.413-2.196,0.997-2.963
				c0.673-0.857,1.611-1.291,2.79-1.291c1.144,0,2.046,0.448,2.68,1.332c0.559,0.768,0.843,1.754,0.843,2.931V145.703z
				 M32.328,145.415h6.721c-0.022-1.051-0.287-1.931-0.787-2.618c-0.585-0.816-1.385-1.212-2.446-1.212
				c-1.086,0-1.948,0.396-2.562,1.178C32.731,143.45,32.419,144.342,32.328,145.415z"/>
		</g>
		<g>
			<path fill="#FFFFFF" d="M45.742,141.118h0.607v1.613c0.62-1.215,1.727-1.822,3.321-1.822c2.252,0,3.378,1.177,3.378,3.53v6.529
				h-0.607v-6.339c0-1.05-0.19-1.822-0.569-2.316c-0.443-0.569-1.17-0.853-2.182-0.853c-1.86,0-2.942,0.841-3.245,2.524
				c-0.025,0.189-0.048,0.426-0.067,0.712c-0.019,0.285-0.028,0.616-0.028,0.996v5.276h-0.607V141.118z"/>
			<path fill="#FFFFFF" d="M53.193,151.112h-0.896v-6.483c0-1.013-0.182-1.762-0.54-2.228c-0.412-0.529-1.108-0.797-2.068-0.797
				c-1.796,0-2.811,0.787-3.103,2.406c-0.024,0.179-0.046,0.415-0.065,0.696c-0.019,0.277-0.028,0.61-0.028,0.987v5.42h-0.896
				v-10.138h0.896v1.238c0.676-0.961,1.742-1.447,3.177-1.447c2.337,0,3.522,1.236,3.522,3.674V151.112z M52.586,150.824h0.319
				v-6.384c0-2.278-1.058-3.386-3.234-3.386c-1.55,0-2.595,0.57-3.193,1.743l-0.273,0.534v-2.069h-0.319v9.561h0.319v-5.131
				c0-0.384,0.01-0.722,0.029-1.006c0.019-0.287,0.042-0.53,0.068-0.722c0.317-1.76,1.457-2.649,3.388-2.649
				c1.054,0,1.827,0.306,2.296,0.909c0.398,0.517,0.6,1.326,0.6,2.404V150.824z"/>
		</g>
		<g>
			<path fill="#FFFFFF" d="M62.804,150.665c0.797,0,1.455-0.171,1.974-0.512c0.62-0.392,0.93-0.968,0.93-1.727
				c0-0.911-0.652-1.544-1.955-1.898c-0.038-0.013-0.098-0.032-0.18-0.057c-0.082-0.025-0.193-0.05-0.332-0.075
				c-1.607-0.418-2.644-0.81-3.112-1.177c-0.531-0.418-0.797-0.987-0.797-1.708c0-0.861,0.367-1.525,1.101-1.993
				c0.632-0.405,1.392-0.607,2.277-0.607c0.911,0,1.664,0.24,2.259,0.721c0.607,0.506,0.961,1.208,1.062,2.106h-0.588
				c-0.203-1.53-1.139-2.296-2.809-2.296c-0.696,0-1.29,0.152-1.784,0.456c-0.595,0.367-0.892,0.879-0.892,1.537
				c0,0.987,1.006,1.733,3.018,2.239c0.025,0.026,0.088,0.044,0.19,0.057c1.037,0.265,1.759,0.537,2.164,0.815
				c0.67,0.443,1.006,1.076,1.006,1.898c0,0.886-0.373,1.588-1.12,2.107c-0.671,0.442-1.468,0.664-2.391,0.664
				c-1.05,0-1.91-0.259-2.581-0.777c-0.696-0.557-1.088-1.354-1.177-2.392h0.588C59.97,149.791,61.02,150.665,62.804,150.665z"/>
			<path fill="#FFFFFF" d="M62.823,151.359c-1.079,0-1.977-0.272-2.669-0.808c-0.727-0.581-1.141-1.419-1.233-2.493l-0.014-0.157
				h0.866l0.021,0.119c0.305,1.683,1.289,2.501,3.008,2.501c0.764,0,1.401-0.164,1.895-0.489c0.583-0.369,0.865-0.894,0.865-1.607
				c0-0.845-0.605-1.421-1.848-1.759l-0.186-0.059c-0.073-0.022-0.18-0.046-0.314-0.07c-1.653-0.43-2.688-0.823-3.176-1.205
				c-0.566-0.445-0.853-1.057-0.853-1.821c0-0.909,0.393-1.621,1.168-2.115c0.652-0.418,1.445-0.63,2.355-0.63
				c0.941,0,1.731,0.253,2.35,0.753c0.635,0.529,1.01,1.27,1.115,2.202l0.018,0.16h-0.876l-0.017-0.125
				c-0.194-1.461-1.066-2.171-2.666-2.171c-0.666,0-1.24,0.146-1.708,0.435c-0.554,0.341-0.824,0.804-0.824,1.415
				c0,0.907,0.979,1.613,2.909,2.099l0.04,0.01l0.026,0.027c0-0.004,0.026,0.007,0.106,0.017c1.065,0.271,1.809,0.552,2.227,0.84
				c0.708,0.468,1.068,1.147,1.068,2.017c0,0.932-0.398,1.681-1.182,2.225C64.601,151.128,63.77,151.359,62.823,151.359z
				 M59.225,148.19c0.11,0.917,0.482,1.635,1.108,2.135c0.639,0.495,1.477,0.746,2.491,0.746c0.89,0,1.667-0.215,2.312-0.64
				c0.709-0.493,1.055-1.143,1.055-1.987c0-0.778-0.308-1.359-0.941-1.778c-0.393-0.269-1.105-0.537-2.12-0.796
				c-0.098-0.012-0.168-0.032-0.218-0.065c-2.055-0.522-3.097-1.32-3.097-2.371c0-0.709,0.323-1.267,0.961-1.66
				c0.514-0.317,1.14-0.477,1.859-0.477c1.7,0,2.686,0.773,2.934,2.296h0.299c-0.12-0.781-0.452-1.403-0.99-1.852
				c-0.564-0.456-1.294-0.687-2.167-0.687c-0.854,0-1.594,0.197-2.2,0.584c-0.696,0.444-1.035,1.057-1.035,1.872
				c0,0.68,0.243,1.202,0.742,1.594c0.449,0.352,1.479,0.74,3.06,1.151c0.137,0.024,0.251,0.05,0.338,0.077l0.185,0.059
				c1.359,0.369,2.053,1.055,2.053,2.035c0,0.809-0.335,1.431-0.997,1.849c-0.54,0.354-1.231,0.535-2.051,0.535
				c-1.815,0-2.914-0.881-3.269-2.62H59.225z"/>
		</g>
		<g>
			<path fill="#FFFFFF" d="M72.692,137.171c0.278,0,0.417,0.297,0.417,0.892c0,0.607-0.139,0.911-0.417,0.911
				c-0.266,0-0.399-0.304-0.399-0.911C72.293,137.468,72.426,137.171,72.692,137.171z M72.407,141.118h0.588v9.85h-0.588V141.118z"
				/>
			<path fill="#FFFFFF" d="M73.139,151.112h-0.877v-10.138h0.877V151.112z M72.551,150.824h0.3v-9.561h-0.3V150.824z
				 M72.692,139.118c-0.36,0-0.543-0.355-0.543-1.055c0-0.688,0.183-1.037,0.543-1.037c0.373,0,0.562,0.349,0.562,1.037
				C73.253,138.763,73.065,139.118,72.692,139.118z M72.692,137.315c-0.222,0-0.255,0.469-0.255,0.748
				c0,0.286,0.033,0.767,0.255,0.767c0.238,0,0.273-0.481,0.273-0.767C72.965,137.722,72.918,137.315,72.692,137.315z"/>
		</g>
		<g>
			<path fill="#FFFFFF" d="M79.467,137.342h0.607v6.016c0.683-1.633,1.923-2.448,3.72-2.448c1.442,0,2.549,0.519,3.321,1.556
				c0.683,0.911,1.025,2.114,1.025,3.606c0,1.506-0.341,2.714-1.025,3.625c-0.759,1.013-1.866,1.518-3.321,1.518
				c-1.721,0-2.961-0.777-3.72-2.334v2.088h-0.607V137.342z M80.928,149.28c0.658,0.949,1.613,1.423,2.866,1.423
				c1.252,0,2.214-0.474,2.885-1.423c0.569-0.81,0.854-1.879,0.854-3.208c0-1.315-0.284-2.384-0.854-3.207
				c-0.671-0.949-1.632-1.423-2.885-1.423c-1.265,0-2.22,0.474-2.866,1.423c-0.569,0.823-0.854,1.892-0.854,3.207
				C80.074,147.401,80.359,148.47,80.928,149.28z"/>
			<path fill="#FFFFFF" d="M83.794,151.359c-1.58,0-2.78-0.645-3.576-1.92v1.673h-0.896v-13.914h0.896v5.538
				c0.744-1.308,1.944-1.97,3.576-1.97c1.483,0,2.639,0.543,3.437,1.614c0.699,0.932,1.053,2.174,1.053,3.692
				c0,1.531-0.354,2.78-1.054,3.712C86.447,150.829,85.291,151.359,83.794,151.359z M79.93,148.256l0.274,0.562
				c0.739,1.516,1.914,2.253,3.59,2.253c1.401,0,2.48-0.491,3.206-1.46c0.661-0.881,0.996-2.072,0.996-3.539
				c0-1.454-0.335-2.638-0.996-3.519c-0.74-0.994-1.819-1.498-3.206-1.498c-1.749,0-2.922,0.772-3.587,2.36l-0.277,0.662v-6.59
				h-0.319v13.338h0.319V148.256z M83.794,150.847c-1.297,0-2.301-0.5-2.984-1.485c-0.583-0.83-0.879-1.937-0.879-3.29
				c0-1.339,0.296-2.446,0.879-3.289c0.671-0.986,1.675-1.486,2.984-1.486c1.296,0,2.306,0.499,3.002,1.484
				c0.584,0.845,0.88,1.951,0.88,3.291c0,1.353-0.296,2.461-0.88,3.291C86.1,150.348,85.09,150.847,83.794,150.847z M83.794,141.585
				c-1.225,0-2.124,0.445-2.747,1.36c-0.55,0.795-0.829,1.847-0.829,3.126c0,1.292,0.278,2.344,0.828,3.126
				c0.636,0.917,1.535,1.362,2.748,1.362c1.214,0,2.119-0.446,2.767-1.363c0.549-0.781,0.827-1.832,0.827-3.125
				c0-1.28-0.279-2.331-0.828-3.126C85.913,142.031,85.008,141.585,83.794,141.585z"/>
		</g>
		<g>
			<path fill="#FFFFFF" d="M94.46,137.171c0.278,0,0.417,0.297,0.417,0.892c0,0.607-0.139,0.911-0.417,0.911
				c-0.266,0-0.399-0.304-0.399-0.911C94.061,137.468,94.194,137.171,94.46,137.171z M94.175,141.118h0.588v9.85h-0.588V141.118z"/>
			<path fill="#FFFFFF" d="M94.908,151.112h-0.877v-10.138h0.877V151.112z M94.319,150.824h0.3v-9.561h-0.3V150.824z M94.46,139.118
				c-0.36,0-0.543-0.355-0.543-1.055c0-0.688,0.183-1.037,0.543-1.037c0.373,0,0.562,0.349,0.562,1.037
				C95.022,138.763,94.833,139.118,94.46,139.118z M94.46,137.315c-0.222,0-0.255,0.469-0.255,0.748
				c0,0.286,0.033,0.767,0.255,0.767c0.238,0,0.273-0.481,0.273-0.767C94.733,137.722,94.686,137.315,94.46,137.315z"/>
		</g>
		<g>
			<path fill="#FFFFFF" d="M101.292,137.342h0.588v13.626h-0.588V137.342z"/>
			<path fill="#FFFFFF" d="M102.025,151.112h-0.877v-13.914h0.877V151.112z M101.436,150.824h0.3v-13.338h-0.3V150.824z"/>
		</g>
		<g>
			<path fill="#FFFFFF" d="M108.694,137.171c0.278,0,0.417,0.297,0.417,0.892c0,0.607-0.139,0.911-0.417,0.911
				c-0.266,0-0.399-0.304-0.399-0.911C108.295,137.468,108.428,137.171,108.694,137.171z M108.409,141.118h0.588v9.85h-0.588
				V141.118z"/>
			<path fill="#FFFFFF" d="M109.142,151.112h-0.877v-10.138h0.877V151.112z M108.553,150.824h0.3v-9.561h-0.3V150.824z
				 M108.694,139.118c-0.36,0-0.543-0.355-0.543-1.055c0-0.688,0.183-1.037,0.543-1.037c0.373,0,0.562,0.349,0.562,1.037
				C109.256,138.763,109.067,139.118,108.694,139.118z M108.694,137.315c-0.222,0-0.255,0.469-0.255,0.748
				c0,0.286,0.033,0.767,0.255,0.767c0.238,0,0.273-0.481,0.273-0.767C108.967,137.722,108.92,137.315,108.694,137.315z"/>
		</g>
		<g>
			<path fill="#FFFFFF" d="M123.686,150.968h-0.588v-2.182c-0.645,1.62-1.885,2.429-3.72,2.429c-1.455,0-2.562-0.505-3.321-1.518
				c-0.683-0.911-1.025-2.119-1.025-3.625c0-1.492,0.341-2.695,1.025-3.606c0.771-1.037,1.879-1.556,3.321-1.556
				c1.872,0,3.112,0.79,3.72,2.372v-5.94h0.588V150.968z M122.244,142.864c-0.645-0.949-1.601-1.423-2.866-1.423
				c-1.265,0-2.22,0.474-2.866,1.423c-0.582,0.81-0.873,1.879-0.873,3.207c0,1.329,0.284,2.398,0.854,3.208
				c0.658,0.949,1.619,1.423,2.885,1.423c1.265,0,2.22-0.474,2.866-1.423c0.569-0.81,0.854-1.879,0.854-3.208
				C123.098,144.757,122.814,143.687,122.244,142.864z"/>
			<path fill="#FFFFFF" d="M119.378,151.359c-1.497,0-2.653-0.53-3.437-1.576c-0.699-0.932-1.053-2.181-1.053-3.712
				c0-1.518,0.354-2.76,1.053-3.692c0.797-1.071,1.953-1.614,3.437-1.614c1.679,0,2.878,0.628,3.575,1.868v-5.436h0.877v13.914
				h-0.877v-1.687C122.234,150.709,121.034,151.359,119.378,151.359z M119.378,141.054c-1.387,0-2.466,0.504-3.206,1.498
				c-0.661,0.881-0.996,2.066-0.996,3.52c0,1.467,0.335,2.658,0.996,3.539c0.726,0.969,1.805,1.46,3.206,1.46
				c1.786,0,2.959-0.765,3.586-2.338l0.278-0.698v2.79h0.3v-13.338h-0.3v6.574l-0.279-0.726
				C122.374,141.8,121.202,141.054,119.378,141.054z M119.378,150.847c-1.309,0-2.32-0.5-3.003-1.485
				c-0.584-0.83-0.88-1.937-0.88-3.29c0-1.353,0.303-2.46,0.9-3.292c0.669-0.983,1.673-1.483,2.983-1.483
				c1.31,0,2.314,0.5,2.985,1.486c0.583,0.842,0.879,1.949,0.879,3.289c0,1.353-0.296,2.461-0.88,3.291
				C121.692,150.347,120.688,150.847,119.378,150.847z M119.378,141.585c-1.225,0-2.124,0.445-2.747,1.36
				c-0.563,0.784-0.848,1.835-0.848,3.126c0,1.292,0.278,2.344,0.828,3.125c0.636,0.917,1.541,1.362,2.767,1.362
				c1.225,0,2.124-0.445,2.747-1.36c0.55-0.783,0.829-1.834,0.829-3.127c0-1.28-0.279-2.331-0.828-3.126
				C121.502,142.03,120.604,141.585,119.378,141.585z"/>
		</g>
		<g>
			<path fill="#FFFFFF" d="M134.03,151.215c-1.43,0-2.537-0.505-3.321-1.518c-0.683-0.923-1.025-2.131-1.025-3.625
				c0-1.505,0.341-2.713,1.025-3.624c0.759-1.025,1.866-1.537,3.321-1.537c1.834,0,3.075,0.823,3.72,2.467v-2.258h0.588v9.85h-0.588
				v-2.126C137.117,150.424,135.877,151.215,134.03,151.215z M131.145,149.28c0.658,0.949,1.619,1.423,2.885,1.423
				c1.265,0,2.22-0.474,2.866-1.423c0.569-0.81,0.854-1.879,0.854-3.208c0-1.315-0.284-2.384-0.854-3.207
				c-0.645-0.949-1.601-1.423-2.866-1.423c-1.265,0-2.22,0.474-2.866,1.423c-0.582,0.81-0.873,1.879-0.873,3.207
				C130.291,147.401,130.576,148.47,131.145,149.28z"/>
			<path fill="#FFFFFF" d="M134.03,151.359c-1.471,0-2.626-0.53-3.435-1.574c-0.701-0.946-1.055-2.195-1.055-3.713
				c0-1.53,0.354-2.779,1.054-3.711c0.783-1.058,1.94-1.595,3.437-1.595c1.656,0,2.856,0.66,3.576,1.963v-1.754h0.877v10.138h-0.877
				v-1.637C136.893,150.726,135.693,151.359,134.03,151.359z M134.03,141.054c-1.4,0-2.479,0.498-3.205,1.479
				c-0.661,0.882-0.997,2.072-0.997,3.538c0,1.455,0.335,2.646,0.997,3.539c0.749,0.968,1.829,1.46,3.205,1.46
				c1.799,0,2.972-0.746,3.586-2.282l0.278-0.695v2.73h0.3v-9.561h-0.3v2.876l-0.278-0.709
				C136.988,141.831,135.816,141.054,134.03,141.054z M134.03,150.847c-1.309,0-2.32-0.5-3.003-1.485
				c-0.583-0.83-0.879-1.937-0.879-3.29c0-1.353,0.303-2.461,0.9-3.292c0.669-0.983,1.673-1.483,2.983-1.483
				c1.31,0,2.314,0.5,2.985,1.486c0.583,0.843,0.879,1.949,0.879,3.289c0,1.353-0.296,2.46-0.88,3.291
				C136.344,150.347,135.339,150.847,134.03,150.847z M134.03,141.585c-1.225,0-2.124,0.445-2.747,1.36
				c-0.563,0.784-0.848,1.835-0.848,3.126c0,1.293,0.278,2.344,0.828,3.125c0.636,0.917,1.541,1.362,2.767,1.362
				c1.225,0,2.124-0.445,2.747-1.36c0.551-0.783,0.829-1.835,0.829-3.127c0-1.28-0.279-2.331-0.829-3.126
				C136.154,142.03,135.255,141.585,134.03,141.585z"/>
		</g>
		<g>
			<path fill="#FFFFFF" d="M152.989,150.968h-0.588v-2.182c-0.645,1.62-1.885,2.429-3.72,2.429c-1.455,0-2.562-0.505-3.321-1.518
				c-0.683-0.911-1.025-2.119-1.025-3.625c0-1.492,0.341-2.695,1.025-3.606c0.771-1.037,1.879-1.556,3.321-1.556
				c1.872,0,3.112,0.79,3.72,2.372v-5.94h0.588V150.968z M151.547,142.864c-0.645-0.949-1.601-1.423-2.866-1.423
				c-1.265,0-2.22,0.474-2.866,1.423c-0.582,0.81-0.873,1.879-0.873,3.207c0,1.329,0.284,2.398,0.854,3.208
				c0.658,0.949,1.619,1.423,2.885,1.423c1.265,0,2.22-0.474,2.866-1.423c0.569-0.81,0.854-1.879,0.854-3.208
				C152.401,144.757,152.116,143.687,151.547,142.864z"/>
			<path fill="#FFFFFF" d="M148.681,151.359c-1.497,0-2.653-0.53-3.437-1.576c-0.699-0.932-1.053-2.181-1.053-3.712
				c0-1.518,0.354-2.76,1.053-3.692c0.797-1.071,1.953-1.614,3.437-1.614c1.679,0,2.878,0.628,3.575,1.868v-5.436h0.877v13.914
				h-0.877v-1.687C151.536,150.709,150.337,151.359,148.681,151.359z M148.681,141.054c-1.388,0-2.466,0.504-3.206,1.498
				c-0.661,0.881-0.996,2.066-0.996,3.52c0,1.467,0.335,2.658,0.996,3.539c0.726,0.969,1.805,1.46,3.206,1.46
				c1.786,0,2.959-0.765,3.586-2.338l0.278-0.698v2.79h0.3v-13.338h-0.3v6.574l-0.279-0.726
				C151.677,141.8,150.504,141.054,148.681,141.054z M148.681,150.847c-1.309,0-2.32-0.5-3.003-1.485
				c-0.584-0.83-0.88-1.937-0.88-3.29c0-1.353,0.303-2.46,0.9-3.292c0.669-0.983,1.673-1.483,2.983-1.483
				c1.309,0,2.314,0.5,2.985,1.486c0.583,0.842,0.879,1.949,0.879,3.289c0,1.353-0.296,2.461-0.88,3.291
				C150.995,150.347,149.99,150.847,148.681,150.847z M148.681,141.585c-1.225,0-2.124,0.445-2.747,1.36
				c-0.563,0.784-0.848,1.835-0.848,3.126c0,1.292,0.278,2.344,0.828,3.125c0.636,0.917,1.541,1.362,2.767,1.362
				c1.225,0,2.124-0.445,2.747-1.36c0.55-0.783,0.829-1.834,0.829-3.127c0-1.28-0.279-2.331-0.828-3.126
				C150.805,142.03,149.906,141.585,148.681,141.585z"/>
		</g>
		<g>
			<path fill="#FFFFFF" d="M163.104,151.215c-1.404,0-2.473-0.518-3.207-1.556c-0.645-0.923-0.968-2.119-0.968-3.587
				c0-1.467,0.323-2.657,0.968-3.568c0.734-1.063,1.803-1.594,3.207-1.594c1.379,0,2.429,0.474,3.151,1.423
				c0.658,0.848,0.987,1.987,0.987,3.416v0.36h-7.686v0.152c0,1.215,0.285,2.227,0.854,3.037c0.645,0.937,1.543,1.405,2.695,1.405
				c1.594,0,2.676-0.747,3.246-2.24l0.493,0.266c-0.253,0.67-0.652,1.22-1.196,1.65
				C164.939,150.937,164.091,151.215,163.104,151.215z M166.597,145.559c0-1.151-0.272-2.1-0.816-2.847
				c-0.607-0.847-1.461-1.271-2.562-1.271c-1.138,0-2.03,0.411-2.676,1.233c-0.569,0.747-0.892,1.709-0.968,2.885H166.597z"/>
			<path fill="#FFFFFF" d="M163.104,151.359c-1.448,0-2.566-0.544-3.325-1.617c-0.66-0.945-0.995-2.179-0.995-3.671
				c0-1.49,0.335-2.719,0.995-3.651c0.758-1.098,1.877-1.655,3.325-1.655c1.42,0,2.519,0.498,3.266,1.48
				c0.674,0.87,1.016,2.049,1.016,3.503v0.505l-7.687,0.008c0,1.179,0.278,2.173,0.828,2.954c0.623,0.904,1.466,1.343,2.577,1.343
				c1.542,0,2.56-0.702,3.111-2.147l0.058-0.153l0.749,0.403l-0.044,0.118c-0.262,0.692-0.68,1.269-1.242,1.713
				C165.006,151.068,164.12,151.359,163.104,151.359z M163.104,141.054c-1.367,0-2.377,0.501-3.089,1.532
				c-0.626,0.884-0.943,2.056-0.943,3.486c0,1.431,0.317,2.61,0.942,3.505c0.711,1.005,1.721,1.494,3.089,1.494
				c0.95,0,1.776-0.271,2.454-0.804c0.488-0.386,0.859-0.88,1.104-1.471l-0.238-0.128c-0.606,1.447-1.722,2.18-3.319,2.18
				c-1.196,0-2.142-0.494-2.814-1.467c-0.583-0.83-0.879-1.879-0.879-3.119v-0.296h7.686v-0.216c0-1.389-0.322-2.508-0.957-3.327
				C165.451,141.514,164.429,141.054,163.104,141.054z M166.741,145.703h-7.32l0.01-0.153c0.078-1.2,0.413-2.197,0.997-2.963
				c0.673-0.857,1.611-1.291,2.79-1.291c1.144,0,2.046,0.448,2.68,1.332c0.559,0.768,0.843,1.754,0.843,2.931V145.703z
				 M159.73,145.415h6.721c-0.022-1.051-0.287-1.931-0.787-2.618c-0.585-0.816-1.385-1.212-2.446-1.212
				c-1.086,0-1.948,0.396-2.562,1.178C160.133,143.45,159.821,144.341,159.73,145.415z"/>
		</g>
	</g>
	<rect x="0" y="0.309" fill="#FFFFFF" width="1.465" height="151.16"/>
</g>
</svg>
